# xmcd
#
# Track frame offsets:
# 150
# 15462
# 29782
# 47377
# 58770
# 72120
# 90840
# 102267
# 117573
# 139166
# 154031
# 166439
#
# Disc length: 2392 seconds
#
# Revision: 0
# Processed by: cddbd v1.5.1PL2 Copyright (c) Steve Scherf et al.
# Submitted via: Audion 3.0.2 (http://www.panic.com/audion/)
#
DISCID=9909560c
DTITLE=Louis Armstrong - Louis Armstrong
DYEAR=1900
DGENRE=
TTITLE0=Mack The Knife
TTITLE1=When The Saints Go Marching'in
TTITLE2=Cabaret
TTITLE3=Hello Dolly
TTITLE4=A Kiss To Build A Dream On
TTITLE5=Someday You'll Be Sorry
TTITLE6=Tiger Reg
TTITLE7=Bye And Bye
TTITLE8=St. James Infirmary
TTITLE9=Blueberry Hill
TTITLE10=Jelly Roll Blues
TTITLE11=I Can't Give You Anything But Love
EXTD=
EXTT0=
EXTT1=
EXTT2=
EXTT3=
EXTT4=
EXTT5=
EXTT6=
EXTT7=
EXTT8=
EXTT9=
EXTT10=
EXTT11=
PLAYORDER=
